<mxfile host="app.diagrams.net" modified="2022-02-18T07:29:24.498Z" agent="5.0 (Windows NT 10.0; Win64; x64) AppleWebKit/537.36 (KHTML, like Gecko) Chrome/97.0.4692.99 Safari/537.36" etag="GotRoSzXM7fsgUC7qkvS" version="16.5.5" type="github">
  <diagram id="bixSDpGMKZh9JCM2c2_f" name="Page-1">
    <mxGraphModel dx="3076" dy="1931" grid="1" gridSize="10" guides="1" tooltips="1" connect="1" arrows="1" fold="1" page="1" pageScale="1" pageWidth="827" pageHeight="1169" math="0" shadow="0">
      <root>
        <mxCell id="0" />
        <mxCell id="1" parent="0" />
        <mxCell id="MydzxWOjrlcetfUnZiZt-8" style="edgeStyle=orthogonalEdgeStyle;rounded=0;orthogonalLoop=1;jettySize=auto;html=1;entryX=1;entryY=0.5;entryDx=0;entryDy=0;" parent="1" source="MydzxWOjrlcetfUnZiZt-1" target="MydzxWOjrlcetfUnZiZt-7" edge="1">
          <mxGeometry relative="1" as="geometry" />
        </mxCell>
        <mxCell id="MydzxWOjrlcetfUnZiZt-1" value="exam_task&lt;br&gt;考试列表" style="rounded=0;whiteSpace=wrap;html=1;" parent="1" vertex="1">
          <mxGeometry x="420" y="170" width="120" height="60" as="geometry" />
        </mxCell>
        <mxCell id="MydzxWOjrlcetfUnZiZt-2" value="comm_user&lt;br&gt;用户" style="rounded=0;whiteSpace=wrap;html=1;" parent="1" vertex="1">
          <mxGeometry x="600" y="300" width="120" height="50" as="geometry" />
        </mxCell>
        <mxCell id="MydzxWOjrlcetfUnZiZt-5" style="edgeStyle=orthogonalEdgeStyle;rounded=0;orthogonalLoop=1;jettySize=auto;html=1;entryX=0.5;entryY=0;entryDx=0;entryDy=0;" parent="1" source="MydzxWOjrlcetfUnZiZt-3" target="MydzxWOjrlcetfUnZiZt-2" edge="1">
          <mxGeometry relative="1" as="geometry">
            <Array as="points">
              <mxPoint x="660" y="260" />
              <mxPoint x="660" y="260" />
            </Array>
          </mxGeometry>
        </mxCell>
        <mxCell id="MydzxWOjrlcetfUnZiZt-6" style="edgeStyle=orthogonalEdgeStyle;rounded=0;orthogonalLoop=1;jettySize=auto;html=1;exitX=0;exitY=0.5;exitDx=0;exitDy=0;" parent="1" source="MydzxWOjrlcetfUnZiZt-3" target="MydzxWOjrlcetfUnZiZt-1" edge="1">
          <mxGeometry relative="1" as="geometry" />
        </mxCell>
        <mxCell id="MydzxWOjrlcetfUnZiZt-3" value="user_exam_task&lt;br&gt;用户考试任务" style="rounded=0;whiteSpace=wrap;html=1;" parent="1" vertex="1">
          <mxGeometry x="600" y="170" width="120" height="60" as="geometry" />
        </mxCell>
        <mxCell id="MydzxWOjrlcetfUnZiZt-10" style="edgeStyle=orthogonalEdgeStyle;rounded=0;orthogonalLoop=1;jettySize=auto;html=1;exitX=0;exitY=0.5;exitDx=0;exitDy=0;" parent="1" source="MydzxWOjrlcetfUnZiZt-7" target="MydzxWOjrlcetfUnZiZt-9" edge="1">
          <mxGeometry relative="1" as="geometry" />
        </mxCell>
        <mxCell id="MydzxWOjrlcetfUnZiZt-7" value="exam&lt;br&gt;试卷" style="rounded=0;whiteSpace=wrap;html=1;" parent="1" vertex="1">
          <mxGeometry x="230" y="170" width="120" height="60" as="geometry" />
        </mxCell>
        <mxCell id="MydzxWOjrlcetfUnZiZt-9" value="exercise&lt;br&gt;习题" style="rounded=0;whiteSpace=wrap;html=1;" parent="1" vertex="1">
          <mxGeometry x="80" y="170" width="120" height="60" as="geometry" />
        </mxCell>
        <mxCell id="MydzxWOjrlcetfUnZiZt-24" style="edgeStyle=orthogonalEdgeStyle;rounded=0;orthogonalLoop=1;jettySize=auto;html=1;exitX=0.5;exitY=1;exitDx=0;exitDy=0;" parent="1" source="MydzxWOjrlcetfUnZiZt-11" target="MydzxWOjrlcetfUnZiZt-3" edge="1">
          <mxGeometry relative="1" as="geometry" />
        </mxCell>
        <mxCell id="MydzxWOjrlcetfUnZiZt-11" value="user_exam&lt;br&gt;用户考试" style="rounded=0;whiteSpace=wrap;html=1;" parent="1" vertex="1">
          <mxGeometry x="600" y="70" width="120" height="60" as="geometry" />
        </mxCell>
        <mxCell id="MydzxWOjrlcetfUnZiZt-14" style="edgeStyle=orthogonalEdgeStyle;rounded=0;orthogonalLoop=1;jettySize=auto;html=1;exitX=0.5;exitY=0;exitDx=0;exitDy=0;entryX=0.5;entryY=1;entryDx=0;entryDy=0;" parent="1" source="MydzxWOjrlcetfUnZiZt-13" target="MydzxWOjrlcetfUnZiZt-9" edge="1">
          <mxGeometry relative="1" as="geometry" />
        </mxCell>
        <mxCell id="MydzxWOjrlcetfUnZiZt-13" value="exercise_store&lt;br&gt;习题库" style="rounded=0;whiteSpace=wrap;html=1;" parent="1" vertex="1">
          <mxGeometry x="80" y="270" width="120" height="60" as="geometry" />
        </mxCell>
        <mxCell id="MydzxWOjrlcetfUnZiZt-39" style="edgeStyle=orthogonalEdgeStyle;rounded=0;orthogonalLoop=1;jettySize=auto;html=1;exitX=0.5;exitY=1;exitDx=0;exitDy=0;entryX=0.5;entryY=0;entryDx=0;entryDy=0;" parent="1" source="MydzxWOjrlcetfUnZiZt-15" target="MydzxWOjrlcetfUnZiZt-37" edge="1">
          <mxGeometry relative="1" as="geometry" />
        </mxCell>
        <mxCell id="MydzxWOjrlcetfUnZiZt-40" style="edgeStyle=orthogonalEdgeStyle;rounded=0;orthogonalLoop=1;jettySize=auto;html=1;exitX=0.5;exitY=1;exitDx=0;exitDy=0;entryX=0.5;entryY=0;entryDx=0;entryDy=0;" parent="1" source="MydzxWOjrlcetfUnZiZt-15" target="MydzxWOjrlcetfUnZiZt-16" edge="1">
          <mxGeometry relative="1" as="geometry" />
        </mxCell>
        <mxCell id="MydzxWOjrlcetfUnZiZt-15" value="assignment&lt;br&gt;作业" style="rounded=0;whiteSpace=wrap;html=1;" parent="1" vertex="1">
          <mxGeometry x="-260" y="160" width="120" height="60" as="geometry" />
        </mxCell>
        <mxCell id="MydzxWOjrlcetfUnZiZt-42" style="edgeStyle=orthogonalEdgeStyle;rounded=0;orthogonalLoop=1;jettySize=auto;html=1;exitX=0.5;exitY=1;exitDx=0;exitDy=0;entryX=0.5;entryY=0;entryDx=0;entryDy=0;" parent="1" source="MydzxWOjrlcetfUnZiZt-16" target="MydzxWOjrlcetfUnZiZt-41" edge="1">
          <mxGeometry relative="1" as="geometry" />
        </mxCell>
        <mxCell id="MydzxWOjrlcetfUnZiZt-16" value="assignment_question&lt;br&gt;作业题目" style="rounded=0;whiteSpace=wrap;html=1;" parent="1" vertex="1">
          <mxGeometry x="-390" y="270" width="120" height="60" as="geometry" />
        </mxCell>
        <mxCell id="MydzxWOjrlcetfUnZiZt-20" style="edgeStyle=orthogonalEdgeStyle;rounded=0;orthogonalLoop=1;jettySize=auto;html=1;exitX=1;exitY=0.5;exitDx=0;exitDy=0;entryX=0;entryY=0.5;entryDx=0;entryDy=0;" parent="1" source="MydzxWOjrlcetfUnZiZt-19" target="MydzxWOjrlcetfUnZiZt-9" edge="1">
          <mxGeometry relative="1" as="geometry" />
        </mxCell>
        <mxCell id="MydzxWOjrlcetfUnZiZt-19" value="user_pract_exercise&lt;br&gt;用户练习题总汇" style="rounded=0;whiteSpace=wrap;html=1;" parent="1" vertex="1">
          <mxGeometry x="-80" y="170" width="120" height="60" as="geometry" />
        </mxCell>
        <mxCell id="MydzxWOjrlcetfUnZiZt-22" style="edgeStyle=orthogonalEdgeStyle;rounded=0;orthogonalLoop=1;jettySize=auto;html=1;exitX=0.5;exitY=0;exitDx=0;exitDy=0;" parent="1" source="MydzxWOjrlcetfUnZiZt-21" target="MydzxWOjrlcetfUnZiZt-19" edge="1">
          <mxGeometry relative="1" as="geometry">
            <Array as="points" />
          </mxGeometry>
        </mxCell>
        <mxCell id="MydzxWOjrlcetfUnZiZt-21" value="user_pract_collect&lt;br&gt;个人题库表" style="rounded=0;whiteSpace=wrap;html=1;" parent="1" vertex="1">
          <mxGeometry x="-80" y="270" width="120" height="60" as="geometry" />
        </mxCell>
        <mxCell id="MydzxWOjrlcetfUnZiZt-26" value="" style="endArrow=none;html=1;rounded=0;" parent="1" edge="1">
          <mxGeometry width="50" height="50" relative="1" as="geometry">
            <mxPoint x="-1370" as="sourcePoint" />
            <mxPoint x="820" as="targetPoint" />
            <Array as="points">
              <mxPoint x="270" />
            </Array>
          </mxGeometry>
        </mxCell>
        <mxCell id="MydzxWOjrlcetfUnZiZt-28" style="edgeStyle=orthogonalEdgeStyle;rounded=0;orthogonalLoop=1;jettySize=auto;html=1;entryX=0.5;entryY=0;entryDx=0;entryDy=0;" parent="1" edge="1">
          <mxGeometry relative="1" as="geometry">
            <mxPoint x="474" y="-40" as="sourcePoint" />
            <mxPoint x="480" y="170" as="targetPoint" />
            <Array as="points">
              <mxPoint x="480" y="-40" />
            </Array>
          </mxGeometry>
        </mxCell>
        <mxCell id="MydzxWOjrlcetfUnZiZt-27" value="学习-考试任务" style="rounded=0;whiteSpace=wrap;html=1;" parent="1" vertex="1">
          <mxGeometry x="414" y="-100" width="120" height="60" as="geometry" />
        </mxCell>
        <mxCell id="MydzxWOjrlcetfUnZiZt-30" style="edgeStyle=orthogonalEdgeStyle;rounded=0;orthogonalLoop=1;jettySize=auto;html=1;exitX=0.5;exitY=1;exitDx=0;exitDy=0;" parent="1" source="MydzxWOjrlcetfUnZiZt-29" target="MydzxWOjrlcetfUnZiZt-9" edge="1">
          <mxGeometry relative="1" as="geometry" />
        </mxCell>
        <mxCell id="MydzxWOjrlcetfUnZiZt-29" value="学习-练习" style="rounded=0;whiteSpace=wrap;html=1;" parent="1" vertex="1">
          <mxGeometry x="80" y="-100" width="120" height="60" as="geometry" />
        </mxCell>
        <mxCell id="MydzxWOjrlcetfUnZiZt-32" style="edgeStyle=orthogonalEdgeStyle;rounded=0;orthogonalLoop=1;jettySize=auto;html=1;" parent="1" source="MydzxWOjrlcetfUnZiZt-31" target="MydzxWOjrlcetfUnZiZt-15" edge="1">
          <mxGeometry relative="1" as="geometry" />
        </mxCell>
        <mxCell id="MydzxWOjrlcetfUnZiZt-31" value="学习-作业" style="rounded=0;whiteSpace=wrap;html=1;" parent="1" vertex="1">
          <mxGeometry x="-260" y="-100" width="120" height="60" as="geometry" />
        </mxCell>
        <mxCell id="MydzxWOjrlcetfUnZiZt-35" value="question&lt;br&gt;题目" style="rounded=0;whiteSpace=wrap;html=1;" parent="1" vertex="1">
          <mxGeometry x="-305" y="500" width="120" height="60" as="geometry" />
        </mxCell>
        <mxCell id="MydzxWOjrlcetfUnZiZt-43" style="edgeStyle=orthogonalEdgeStyle;rounded=0;orthogonalLoop=1;jettySize=auto;html=1;exitX=0.5;exitY=1;exitDx=0;exitDy=0;" parent="1" source="MydzxWOjrlcetfUnZiZt-37" edge="1">
          <mxGeometry relative="1" as="geometry">
            <mxPoint x="-230" y="370" as="targetPoint" />
          </mxGeometry>
        </mxCell>
        <mxCell id="MydzxWOjrlcetfUnZiZt-37" value="assignment_task&lt;br&gt;作业安排" style="rounded=0;whiteSpace=wrap;html=1;" parent="1" vertex="1">
          <mxGeometry x="-260" y="270" width="120" height="60" as="geometry" />
        </mxCell>
        <mxCell id="MydzxWOjrlcetfUnZiZt-44" style="edgeStyle=orthogonalEdgeStyle;rounded=0;orthogonalLoop=1;jettySize=auto;html=1;exitX=0.5;exitY=1;exitDx=0;exitDy=0;" parent="1" source="MydzxWOjrlcetfUnZiZt-41" target="MydzxWOjrlcetfUnZiZt-35" edge="1">
          <mxGeometry relative="1" as="geometry" />
        </mxCell>
        <mxCell id="MydzxWOjrlcetfUnZiZt-41" value="assignment_task_question&lt;br&gt;作业任务题目" style="rounded=0;whiteSpace=wrap;html=1;" parent="1" vertex="1">
          <mxGeometry x="-320" y="370" width="150" height="60" as="geometry" />
        </mxCell>
        <mxCell id="MydzxWOjrlcetfUnZiZt-45" value="course&lt;br&gt;课程" style="rounded=0;whiteSpace=wrap;html=1;" parent="1" vertex="1">
          <mxGeometry x="80" y="525" width="120" height="60" as="geometry" />
        </mxCell>
        <mxCell id="MydzxWOjrlcetfUnZiZt-47" style="edgeStyle=orthogonalEdgeStyle;rounded=0;orthogonalLoop=1;jettySize=auto;html=1;exitX=0.5;exitY=1;exitDx=0;exitDy=0;entryX=0.5;entryY=0;entryDx=0;entryDy=0;" parent="1" source="MydzxWOjrlcetfUnZiZt-46" target="MydzxWOjrlcetfUnZiZt-9" edge="1">
          <mxGeometry relative="1" as="geometry" />
        </mxCell>
        <mxCell id="MydzxWOjrlcetfUnZiZt-46" value="exercise_category&lt;br&gt;习题分类" style="rounded=0;whiteSpace=wrap;html=1;" parent="1" vertex="1">
          <mxGeometry x="190" y="60" width="120" height="60" as="geometry" />
        </mxCell>
        <mxCell id="MydzxWOjrlcetfUnZiZt-50" style="edgeStyle=orthogonalEdgeStyle;rounded=0;orthogonalLoop=1;jettySize=auto;html=1;exitX=0.5;exitY=0;exitDx=0;exitDy=0;" parent="1" source="MydzxWOjrlcetfUnZiZt-48" target="MydzxWOjrlcetfUnZiZt-45" edge="1">
          <mxGeometry relative="1" as="geometry" />
        </mxCell>
        <mxCell id="MydzxWOjrlcetfUnZiZt-48" value="course_category&lt;br&gt;课程分类" style="rounded=0;whiteSpace=wrap;html=1;" parent="1" vertex="1">
          <mxGeometry x="80" y="620" width="120" height="60" as="geometry" />
        </mxCell>
        <mxCell id="RCs7ZY-scC4OHZq9N4nw-4" style="edgeStyle=orthogonalEdgeStyle;rounded=0;orthogonalLoop=1;jettySize=auto;html=1;exitX=0.5;exitY=1;exitDx=0;exitDy=0;" edge="1" parent="1" source="RCs7ZY-scC4OHZq9N4nw-1" target="RCs7ZY-scC4OHZq9N4nw-2">
          <mxGeometry relative="1" as="geometry">
            <Array as="points">
              <mxPoint x="-720" y="383" />
            </Array>
          </mxGeometry>
        </mxCell>
        <mxCell id="RCs7ZY-scC4OHZq9N4nw-6" style="edgeStyle=orthogonalEdgeStyle;rounded=0;orthogonalLoop=1;jettySize=auto;html=1;" edge="1" parent="1" source="RCs7ZY-scC4OHZq9N4nw-1" target="RCs7ZY-scC4OHZq9N4nw-5">
          <mxGeometry relative="1" as="geometry" />
        </mxCell>
        <mxCell id="RCs7ZY-scC4OHZq9N4nw-1" value="study_map&lt;br&gt;学习地图" style="rounded=0;whiteSpace=wrap;html=1;" vertex="1" parent="1">
          <mxGeometry x="-790" y="323" width="120" height="60" as="geometry" />
        </mxCell>
        <mxCell id="RCs7ZY-scC4OHZq9N4nw-2" value="study_map_category_study_map&lt;br&gt;分类" style="rounded=0;whiteSpace=wrap;html=1;" vertex="1" parent="1">
          <mxGeometry x="-840" y="488" width="230" height="60" as="geometry" />
        </mxCell>
        <mxCell id="RCs7ZY-scC4OHZq9N4nw-8" style="edgeStyle=orthogonalEdgeStyle;rounded=0;orthogonalLoop=1;jettySize=auto;html=1;" edge="1" parent="1" source="RCs7ZY-scC4OHZq9N4nw-5" target="RCs7ZY-scC4OHZq9N4nw-7">
          <mxGeometry relative="1" as="geometry" />
        </mxCell>
        <mxCell id="RCs7ZY-scC4OHZq9N4nw-5" value="study_map_level&lt;br&gt;关卡" style="rounded=0;whiteSpace=wrap;html=1;" vertex="1" parent="1">
          <mxGeometry x="-950" y="323" width="120" height="60" as="geometry" />
        </mxCell>
        <mxCell id="RCs7ZY-scC4OHZq9N4nw-7" value="study_map_level_course&lt;br&gt;地图关卡课程" style="rounded=0;whiteSpace=wrap;html=1;" vertex="1" parent="1">
          <mxGeometry x="-1160" y="323" width="140" height="60" as="geometry" />
        </mxCell>
        <mxCell id="RCs7ZY-scC4OHZq9N4nw-11" style="edgeStyle=orthogonalEdgeStyle;rounded=0;orthogonalLoop=1;jettySize=auto;html=1;" edge="1" parent="1" source="RCs7ZY-scC4OHZq9N4nw-9" target="RCs7ZY-scC4OHZq9N4nw-10">
          <mxGeometry relative="1" as="geometry" />
        </mxCell>
        <mxCell id="RCs7ZY-scC4OHZq9N4nw-9" value="学习-胜任力" style="rounded=0;whiteSpace=wrap;html=1;" vertex="1" parent="1">
          <mxGeometry x="-790" y="-110" width="120" height="60" as="geometry" />
        </mxCell>
        <mxCell id="RCs7ZY-scC4OHZq9N4nw-13" style="edgeStyle=orthogonalEdgeStyle;rounded=0;orthogonalLoop=1;jettySize=auto;html=1;exitX=0;exitY=0.5;exitDx=0;exitDy=0;entryX=1;entryY=0.5;entryDx=0;entryDy=0;" edge="1" parent="1" source="RCs7ZY-scC4OHZq9N4nw-10" target="RCs7ZY-scC4OHZq9N4nw-12">
          <mxGeometry relative="1" as="geometry" />
        </mxCell>
        <mxCell id="RCs7ZY-scC4OHZq9N4nw-14" style="edgeStyle=orthogonalEdgeStyle;rounded=0;orthogonalLoop=1;jettySize=auto;html=1;" edge="1" parent="1" source="RCs7ZY-scC4OHZq9N4nw-10" target="RCs7ZY-scC4OHZq9N4nw-1">
          <mxGeometry relative="1" as="geometry" />
        </mxCell>
        <mxCell id="RCs7ZY-scC4OHZq9N4nw-16" style="edgeStyle=orthogonalEdgeStyle;rounded=0;orthogonalLoop=1;jettySize=auto;html=1;exitX=1;exitY=0.5;exitDx=0;exitDy=0;" edge="1" parent="1" source="RCs7ZY-scC4OHZq9N4nw-10" target="RCs7ZY-scC4OHZq9N4nw-15">
          <mxGeometry relative="1" as="geometry" />
        </mxCell>
        <mxCell id="RCs7ZY-scC4OHZq9N4nw-18" style="edgeStyle=orthogonalEdgeStyle;rounded=0;orthogonalLoop=1;jettySize=auto;html=1;exitX=1;exitY=0.5;exitDx=0;exitDy=0;entryX=0;entryY=0.5;entryDx=0;entryDy=0;" edge="1" parent="1" source="RCs7ZY-scC4OHZq9N4nw-10" target="RCs7ZY-scC4OHZq9N4nw-17">
          <mxGeometry relative="1" as="geometry" />
        </mxCell>
        <mxCell id="RCs7ZY-scC4OHZq9N4nw-10" value="user_study_map&lt;br&gt;用户学习地图" style="rounded=0;whiteSpace=wrap;html=1;" vertex="1" parent="1">
          <mxGeometry x="-790" y="210" width="120" height="60" as="geometry" />
        </mxCell>
        <mxCell id="RCs7ZY-scC4OHZq9N4nw-12" value="user_study_map_info&lt;br&gt;用户学习地图详情" style="rounded=0;whiteSpace=wrap;html=1;" vertex="1" parent="1">
          <mxGeometry x="-980" y="210" width="120" height="60" as="geometry" />
        </mxCell>
        <mxCell id="RCs7ZY-scC4OHZq9N4nw-15" value="user_study_map_lev_pass&lt;br&gt;用户学习地图关卡完成情况" style="rounded=0;whiteSpace=wrap;html=1;" vertex="1" parent="1">
          <mxGeometry x="-620" y="210" width="160" height="60" as="geometry" />
        </mxCell>
        <mxCell id="RCs7ZY-scC4OHZq9N4nw-17" value="user_study_map_status&lt;br&gt;用户学习地图状态" style="rounded=0;whiteSpace=wrap;html=1;" vertex="1" parent="1">
          <mxGeometry x="-620" y="130" width="145" height="60" as="geometry" />
        </mxCell>
      </root>
    </mxGraphModel>
  </diagram>
</mxfile>
